<svg width="32" height="32" viewBox="0 0 32 32" fill="none" xmlns="http://www.w3.org/2000/svg">
<path d="M5.33301 5.33366C5.33301 4.62641 5.61396 3.94814 6.11406 3.44804C6.61415 2.94794 7.29243 2.66699 7.99967 2.66699H18.6663C19.0199 2.66707 19.359 2.80759 19.609 3.05766L26.2757 9.72433C26.5257 9.97432 26.6663 10.3134 26.6663 10.667V26.667C26.6663 27.3742 26.3854 28.0525 25.8853 28.5526C25.3852 29.0527 24.7069 29.3337 23.9997 29.3337H7.99967C7.29243 29.3337 6.61415 29.0527 6.11406 28.5526C5.61396 28.0525 5.33301 27.3742 5.33301 26.667V5.33366ZM23.4477 10.667L18.6663 5.88566V10.667H23.4477ZM15.9997 5.33366H7.99967V26.667H23.9997V13.3337H17.333C16.9794 13.3337 16.6402 13.1932 16.3902 12.9431C16.1402 12.6931 15.9997 12.3539 15.9997 12.0003V5.33366ZM10.6663 17.3337C10.6663 16.98 10.8068 16.6409 11.0569 16.3908C11.3069 16.1408 11.6461 16.0003 11.9997 16.0003H19.9997C20.3533 16.0003 20.6924 16.1408 20.9425 16.3908C21.1925 16.6409 21.333 16.98 21.333 17.3337C21.333 17.6873 21.1925 18.0264 20.9425 18.2765C20.6924 18.5265 20.3533 18.667 19.9997 18.667H11.9997C11.6461 18.667 11.3069 18.5265 11.0569 18.2765C10.8068 18.0264 10.6663 17.6873 10.6663 17.3337ZM10.6663 22.667C10.6663 22.3134 10.8068 21.9742 11.0569 21.7242C11.3069 21.4741 11.6461 21.3337 11.9997 21.3337H19.9997C20.3533 21.3337 20.6924 21.4741 20.9425 21.7242C21.1925 21.9742 21.333 22.3134 21.333 22.667C21.333 23.0206 21.1925 23.3598 20.9425 23.6098C20.6924 23.8598 20.3533 24.0003 19.9997 24.0003H11.9997C11.6461 24.0003 11.3069 23.8598 11.0569 23.6098C10.8068 23.3598 10.6663 23.0206 10.6663 22.667Z" fill="black"/>
</svg>
