<svg width="27" height="27" viewBox="0 0 27 27" fill="none" xmlns="http://www.w3.org/2000/svg">
<path fill-rule="evenodd" clip-rule="evenodd" d="M10.095 0.666992L0.666992 10.095L5.85233 15.2803L15.2803 5.85233L10.095 0.666992ZM9.20966 3.56699L8.26633 4.51033L11.5663 7.81033L12.509 6.86699L9.20966 3.56699ZM6.85233 5.92433L5.90966 6.86699L9.20966 10.167L10.1523 9.22433L6.85233 5.92433ZM4.49499 8.28166L3.55233 9.22433L6.85233 12.5243L7.79499 11.581L4.49499 8.28166Z" fill="white"/>
<path fill-rule="evenodd" clip-rule="evenodd" d="M5.90918 13.4675L13.4518 5.9248L25.2365 17.7101C25.7409 18.2033 26.1424 18.7917 26.4178 19.4411C26.6932 20.0905 26.837 20.7881 26.841 21.4935C26.8449 22.1989 26.7089 22.8981 26.4408 23.5505C26.1726 24.203 25.7778 24.7958 25.279 25.2946C24.7802 25.7934 24.1874 26.1883 23.5349 26.4564C22.8824 26.7245 22.1833 26.8605 21.4779 26.8566C20.7725 26.8526 20.0749 26.7088 19.4255 26.4334C18.776 26.158 18.1877 25.7565 17.6945 25.2521L5.90918 13.4675ZM7.79451 13.4675L18.6372 24.3095C19.3894 25.0495 20.4036 25.4624 21.4588 25.4581C22.514 25.4538 23.5248 25.0327 24.2709 24.2865C25.0171 23.5404 25.4381 22.5296 25.4424 21.4744C25.4467 20.4192 25.0339 19.405 24.2938 18.6528L13.4518 7.81014L7.79451 13.4675Z" fill="white"/>
<path fill-rule="evenodd" clip-rule="evenodd" d="M11.0947 13.9383L16.2807 8.75293L24.2941 16.7663L19.1087 21.9523L11.0947 13.9383ZM12.9807 13.9383L19.1087 20.0663L22.4087 16.7663L16.2807 10.6383L12.9807 13.9383Z" fill="white"/>
<path fill-rule="evenodd" clip-rule="evenodd" d="M16.0439 17.9449C15.1012 18.4162 13.9225 19.5949 13.6865 20.3022L18.1652 24.7802C19.0403 25.6555 20.2273 26.1472 21.465 26.1472C22.7026 26.1473 23.8896 25.6557 24.7649 24.7806C25.6401 23.9055 26.1318 22.7185 26.1319 21.4808C26.1319 20.2431 25.6403 19.0561 24.7652 18.1809L23.3505 16.7676L19.1085 21.0096L16.0439 17.9449Z" fill="white"/>
<path fill-rule="evenodd" clip-rule="evenodd" d="M14.5038 20.1756L18.6371 24.3089C19.3873 25.0591 20.4047 25.4806 21.4656 25.4807C22.5265 25.4807 23.5439 25.0593 24.2941 24.3092C25.0443 23.5591 25.4658 22.5417 25.4659 21.4808C25.466 20.4199 25.0446 19.4024 24.2945 18.6522L23.3511 17.7096L19.1091 21.9522L15.9391 18.7822C15.6288 18.9969 15.3387 19.2395 15.0725 19.5069C14.8632 19.7122 14.6728 19.936 14.5038 20.1756ZM14.1291 18.5636C14.6038 18.0889 15.1911 17.6262 15.7465 17.3489L15.8265 17.3089L16.2638 17.2209L19.1091 20.0662L23.3511 15.8242L25.2378 17.7096C25.738 18.2037 26.1355 18.7919 26.4075 19.4403C26.6795 20.0886 26.8206 20.7844 26.8227 21.4875C26.8248 22.1906 26.6878 22.8872 26.4197 23.5372C26.1516 24.1871 25.7576 24.7777 25.2604 25.2749C24.7632 25.772 24.1726 26.1659 23.5226 26.434C22.8726 26.702 22.176 26.8389 21.4729 26.8368C20.7698 26.8346 20.0741 26.6934 19.4258 26.4214C18.7774 26.1493 18.1893 25.7518 17.6951 25.2516L12.9805 20.5382L13.0358 20.1482L13.0551 20.0916C13.2238 19.5842 13.6711 19.0216 14.1291 18.5636Z" fill="white"/>
</svg>
