<svg width="32" height="32" viewBox="0 0 32 32" fill="none" xmlns="http://www.w3.org/2000/svg">
<path fill-rule="evenodd" clip-rule="evenodd" d="M12.095 2.66699L2.66699 12.095L7.85233 17.2803L17.2803 7.85233L12.095 2.66699ZM11.2097 5.56699L10.2663 6.51033L13.5663 9.81033L14.509 8.86699L11.2097 5.56699ZM8.85233 7.92433L7.90966 8.86699L11.2097 12.167L12.1523 11.2243L8.85233 7.92433ZM6.49499 10.2817L5.55233 11.2243L8.85233 14.5243L9.79499 13.581L6.49499 10.2817Z" fill="black"/>
<path fill-rule="evenodd" clip-rule="evenodd" d="M7.90918 15.4675L15.4518 7.9248L27.2365 19.7101C27.7409 20.2033 28.1424 20.7917 28.4178 21.4411C28.6932 22.0905 28.837 22.7881 28.841 23.4935C28.8449 24.1989 28.7089 24.8981 28.4408 25.5505C28.1726 26.203 27.7778 26.7958 27.279 27.2946C26.7802 27.7934 26.1874 28.1883 25.5349 28.4564C24.8824 28.7245 24.1833 28.8605 23.4779 28.8566C22.7725 28.8526 22.0749 28.7088 21.4255 28.4334C20.776 28.158 20.1877 27.7565 19.6945 27.2521L7.90918 15.4675ZM9.79451 15.4675L20.6372 26.3095C21.3894 27.0495 22.4036 27.4624 23.4588 27.4581C24.514 27.4538 25.5248 27.0327 26.2709 26.2865C27.0171 25.5404 27.4381 24.5296 27.4424 23.4744C27.4467 22.4192 27.0339 21.405 26.2938 20.6528L15.4518 9.81014L9.79451 15.4675Z" fill="black"/>
<path fill-rule="evenodd" clip-rule="evenodd" d="M13.0947 15.9383L18.2807 10.7529L26.2941 18.7663L21.1087 23.9523L13.0947 15.9383ZM14.9807 15.9383L21.1087 22.0663L24.4087 18.7663L18.2807 12.6383L14.9807 15.9383Z" fill="black"/>
<path fill-rule="evenodd" clip-rule="evenodd" d="M18.0439 19.9449C17.1012 20.4162 15.9225 21.5949 15.6865 22.3022L20.1652 26.7802C21.0403 27.6555 22.2273 28.1472 23.465 28.1472C24.7026 28.1473 25.8896 27.6557 26.7649 26.7806C27.6401 25.9055 28.1318 24.7185 28.1319 23.4808C28.1319 22.2431 27.6403 21.0561 26.7652 20.1809L25.3505 18.7676L21.1085 23.0096L18.0439 19.9449Z" fill="black"/>
<path fill-rule="evenodd" clip-rule="evenodd" d="M16.5038 22.1756L20.6371 26.3089C21.3873 27.0591 22.4047 27.4806 23.4656 27.4807C24.5265 27.4807 25.5439 27.0593 26.2941 26.3092C27.0443 25.5591 27.4658 24.5417 27.4659 23.4808C27.466 22.4199 27.0446 21.4024 26.2945 20.6522L25.3511 19.7096L21.1091 23.9522L17.9391 20.7822C17.6288 20.9969 17.3387 21.2395 17.0725 21.5069C16.8632 21.7122 16.6728 21.936 16.5038 22.1756ZM16.1291 20.5636C16.6038 20.0889 17.1911 19.6262 17.7465 19.3489L17.8265 19.3089L18.2638 19.2209L21.1091 22.0662L25.3511 17.8242L27.2378 19.7096C27.738 20.2037 28.1355 20.7919 28.4075 21.4403C28.6795 22.0886 28.8206 22.7844 28.8227 23.4875C28.8248 24.1906 28.6878 24.8872 28.4197 25.5372C28.1516 26.1871 27.7576 26.7777 27.2604 27.2749C26.7632 27.772 26.1726 28.1659 25.5226 28.434C24.8726 28.702 24.176 28.8389 23.4729 28.8368C22.7698 28.8346 22.0741 28.6934 21.4258 28.4214C20.7774 28.1493 20.1893 27.7518 19.6951 27.2516L14.9805 22.5382L15.0358 22.1482L15.0551 22.0916C15.2238 21.5842 15.6711 21.0216 16.1291 20.5636Z" fill="black"/>
</svg>
