<svg width="69" height="61" viewBox="0 0 69 61" fill="none" xmlns="http://www.w3.org/2000/svg">
<path d="M34.3117 13.7014L8.27593 36.661C8.08292 36.8349 7.8363 36.9159 7.62423 37.0601V59.094C7.62423 59.5995 7.82507 60.0844 8.18256 60.4419C8.54005 60.7994 9.02491 61.0002 9.53048 61.0002H59.093C59.5986 61.0002 60.0834 60.7994 60.4409 60.4419C60.7984 60.0844 60.9992 59.5995 60.9992 59.094V37.0649C60.7967 36.9267 60.556 36.848 60.3726 36.6836L34.3117 13.7014ZM45.7492 44.7971C45.7492 45.0499 45.6488 45.2923 45.4701 45.471C45.2913 45.6498 45.0489 45.7502 44.7961 45.7502H38.1242V52.4221C38.1242 52.6749 38.0238 52.9173 37.8451 53.096C37.6663 53.2748 37.4239 53.3752 37.1711 53.3752H31.4524C31.1996 53.3752 30.9571 53.2748 30.7784 53.096C30.5996 52.9173 30.4992 52.6749 30.4992 52.4221V45.7502H23.8274C23.5746 45.7502 23.3321 45.6498 23.1534 45.471C22.9746 45.2923 22.8742 45.0499 22.8742 44.7971V39.0783C22.8742 38.8255 22.9746 38.5831 23.1534 38.4044C23.3321 38.2256 23.5746 38.1252 23.8274 38.1252H30.4992V31.4533C30.4992 31.2005 30.5996 30.9581 30.7784 30.7794C30.9571 30.6006 31.1996 30.5002 31.4524 30.5002H37.1711C37.4239 30.5002 37.6663 30.6006 37.8451 30.7794C38.0238 30.9581 38.1242 31.2005 38.1242 31.4533V38.1252H44.7961C45.0489 38.1252 45.2913 38.2256 45.4701 38.4044C45.6488 38.5831 45.7492 38.8255 45.7492 39.0783V44.7971ZM67.9916 28.1508L37.4987 1.22497C36.626 0.435908 35.4913 -0.000976562 34.3147 -0.000976562C33.1381 -0.000976562 32.0034 0.435908 31.1307 1.22497L0.630677 28.1508C0.444366 28.3181 0.292842 28.5204 0.184761 28.7463C0.0766805 28.9722 0.0141606 29.2171 0.00077326 29.4672C-0.0126141 29.7172 0.0233935 29.9675 0.106739 30.2036C0.190084 30.4397 0.319134 30.6571 0.486517 30.8433L3.03732 33.6813C3.20462 33.8676 3.40699 34.0191 3.63286 34.1272C3.85874 34.2353 4.1037 34.2978 4.35374 34.3112C4.60379 34.3246 4.85402 34.2885 5.09014 34.2052C5.32627 34.1219 5.54366 33.9928 5.7299 33.8254L33.0512 9.72566C33.3995 9.41842 33.8479 9.24888 34.3123 9.24888C34.7767 9.24888 35.2252 9.41842 35.5734 9.72566L62.8948 33.8242C63.081 33.9916 63.2984 34.1207 63.5345 34.204C63.7706 34.2874 64.0209 34.3234 64.2709 34.31C64.521 34.2966 64.7659 34.2341 64.9918 34.126C65.2177 34.0179 65.42 33.8664 65.5873 33.6801L68.1369 30.8421C68.4745 30.4659 68.6488 29.9711 68.6215 29.4664C68.5943 28.9617 68.3677 28.4884 67.9916 28.1508Z" fill="#FA7F72"/>
</svg>
