<svg width="24" height="24" viewBox="0 0 24 24" fill="none" xmlns="http://www.w3.org/2000/svg">
<path d="M18.6667 24C17.9333 24 17.3058 23.7391 16.784 23.2173C16.2622 22.6956 16.0009 22.0676 16 21.3333V2.66667C16 1.93333 16.2613 1.30578 16.784 0.784C17.3067 0.262222 17.9342 0.000888889 18.6667 0H21.3333C22.0667 0 22.6947 0.261333 23.2173 0.784C23.74 1.30667 24.0009 1.93422 24 2.66667V21.3333C24 22.0667 23.7391 22.6947 23.2173 23.2173C22.6956 23.74 22.0676 24.0009 21.3333 24H18.6667ZM12 24C11.6222 24 11.3058 23.872 11.0507 23.616C10.7956 23.36 10.6676 23.0436 10.6667 22.6667C10.6658 22.2898 10.7938 21.9733 11.0507 21.7173C11.3076 21.4613 11.624 21.3333 12 21.3333C12.376 21.3333 12.6929 21.4613 12.9507 21.7173C13.2085 21.9733 13.336 22.2898 13.3333 22.6667C13.3307 23.0436 13.2027 23.3604 12.9493 23.6173C12.696 23.8742 12.3796 24.0018 12 24ZM6.66667 24C6.28889 24 5.97245 23.872 5.71734 23.616C5.46223 23.36 5.33423 23.0436 5.33334 22.6667C5.33245 22.2898 5.46045 21.9733 5.71734 21.7173C5.97423 21.4613 6.29067 21.3333 6.66667 21.3333C7.04267 21.3333 7.35956 21.4613 7.61734 21.7173C7.87512 21.9733 8.00267 22.2898 8 22.6667C7.99734 23.0436 7.86934 23.3604 7.616 23.6173C7.36267 23.8742 7.04623 24.0018 6.66667 24ZM1.33334 24C0.95556 24 0.639116 23.872 0.384005 23.616C0.128894 23.36 0.000893487 23.0436 4.5977e-06 22.6667C-0.000884291 22.2898 0.127116 21.9733 0.384005 21.7173C0.640894 21.4613 0.957338 21.3333 1.33334 21.3333C1.70934 21.3333 2.02623 21.4613 2.284 21.7173C2.54178 21.9733 2.66934 22.2898 2.66667 22.6667C2.664 23.0436 2.536 23.3604 2.28267 23.6173C2.02934 23.8742 1.71289 24.0018 1.33334 24ZM12 2.66667C11.6222 2.66667 11.3058 2.53867 11.0507 2.28267C10.7956 2.02667 10.6676 1.71022 10.6667 1.33333C10.6658 0.956444 10.7938 0.64 11.0507 0.384C11.3076 0.128 11.624 0 12 0C12.376 0 12.6929 0.128 12.9507 0.384C13.2085 0.64 13.336 0.956444 13.3333 1.33333C13.3307 1.71022 13.2027 2.02711 12.9493 2.284C12.696 2.54089 12.3796 2.66844 12 2.66667ZM6.66667 2.66667C6.28889 2.66667 5.97245 2.53867 5.71734 2.28267C5.46223 2.02667 5.33423 1.71022 5.33334 1.33333C5.33245 0.956444 5.46045 0.64 5.71734 0.384C5.97423 0.128 6.29067 0 6.66667 0C7.04267 0 7.35956 0.128 7.61734 0.384C7.87512 0.64 8.00267 0.956444 8 1.33333C7.99734 1.71022 7.86934 2.02711 7.616 2.284C7.36267 2.54089 7.04623 2.66844 6.66667 2.66667ZM1.33334 2.66667C0.95556 2.66667 0.639116 2.53867 0.384005 2.28267C0.128894 2.02667 0.000893487 1.71022 4.5977e-06 1.33333C-0.000884291 0.956444 0.127116 0.64 0.384005 0.384C0.640894 0.128 0.957338 0 1.33334 0C1.70934 0 2.02623 0.128 2.284 0.384C2.54178 0.64 2.66934 0.956444 2.66667 1.33333C2.664 1.71022 2.536 2.02711 2.28267 2.284C2.02934 2.54089 1.71289 2.66844 1.33334 2.66667ZM5.1 13.3333L6.3 14.5333C6.54445 14.7778 6.66667 15.0836 6.66667 15.4507C6.66667 15.8178 6.53334 16.1342 6.26667 16.4C6.02223 16.6444 5.71112 16.7667 5.33334 16.7667C4.95556 16.7667 4.64445 16.6444 4.4 16.4L0.933338 12.9333C0.666671 12.6667 0.533338 12.3556 0.533338 12C0.533338 11.6444 0.666671 11.3333 0.933338 11.0667L4.4 7.6C4.64445 7.35556 4.95023 7.228 5.31734 7.21733C5.68445 7.20667 6.00089 7.33422 6.26667 7.6C6.51112 7.84444 6.63334 8.15555 6.63334 8.53333C6.63334 8.91111 6.51112 9.22222 6.26667 9.46667L5.1 10.6667H12C12.3778 10.6667 12.6947 10.7947 12.9507 11.0507C13.2067 11.3067 13.3342 11.6231 13.3333 12C13.3324 12.3769 13.2044 12.6938 12.9493 12.9507C12.6942 13.2076 12.3778 13.3351 12 13.3333H5.1Z" fill="white"/>
</svg>
