<svg width="20" height="20" viewBox="0 0 20 20" fill="none" xmlns="http://www.w3.org/2000/svg">
<path fill-rule="evenodd" clip-rule="evenodd" d="M3.33333 0C2.44928 0 1.60143 0.351189 0.976311 0.976311C0.351189 1.60143 0 2.44928 0 3.33333V16.6667C0 17.5507 0.351189 18.3986 0.976311 19.0237C1.60143 19.6488 2.44928 20 3.33333 20H16.6667C17.5507 20 18.3986 19.6488 19.0237 19.0237C19.6488 18.3986 20 17.5507 20 16.6667V3.33333C20 2.44928 19.6488 1.60143 19.0237 0.976311C18.3986 0.351189 17.5507 0 16.6667 0H3.33333ZM10 15C9.66848 15 9.35054 14.8683 9.11612 14.6339C8.8817 14.3995 8.75 14.0815 8.75 13.75V11.25H6.25C5.91848 11.25 5.60054 11.1183 5.36612 10.8839C5.1317 10.6495 5 10.3315 5 10C5 9.66848 5.1317 9.35054 5.36612 9.11612C5.60054 8.8817 5.91848 8.75 6.25 8.75H8.75V6.25C8.75 5.91848 8.8817 5.60054 9.11612 5.36612C9.35054 5.1317 9.66848 5 10 5C10.3315 5 10.6495 5.1317 10.8839 5.36612C11.1183 5.60054 11.25 5.91848 11.25 6.25V8.75H13.75C14.0815 8.75 14.3995 8.8817 14.6339 9.11612C14.8683 9.35054 15 9.66848 15 10C15 10.3315 14.8683 10.6495 14.6339 10.8839C14.3995 11.1183 14.0815 11.25 13.75 11.25H11.25V13.75C11.25 14.0815 11.1183 14.3995 10.8839 14.6339C10.6495 14.8683 10.3315 15 10 15Z" fill="white"/>
</svg>
