<svg width="124" height="124" viewBox="0 0 124 124" fill="none" xmlns="http://www.w3.org/2000/svg">
<g filter="url(#filter0_d_1524_31)">
<circle cx="62" cy="58" r="50" fill="white"/>
</g>
<path fill-rule="evenodd" clip-rule="evenodd" d="M42.54 34.5494C43.5236 33.5585 44.8581 33.0012 46.25 33H67.25C67.48 32.9996 67.7078 33.0448 67.9204 33.133C68.1329 33.2212 68.3262 33.3507 68.489 33.5141L82.489 47.5995C82.6514 47.7633 82.7801 47.9577 82.8678 48.1716C82.9555 48.3855 83.0004 48.6147 83 48.8461V77.0168C83 78.4177 82.4469 79.7612 81.4623 80.7518C80.4777 81.7424 79.1424 82.2989 77.75 82.2989H46.25C44.8576 82.2989 43.5223 81.7424 42.5377 80.7518C41.5531 79.7612 41 78.4177 41 77.0168V38.282C41 36.8805 41.553 35.5354 42.54 34.5494ZM58.395 52.1104C58.395 51.3497 59.011 50.73 59.7705 50.73H64.233C64.989 50.73 65.605 51.3497 65.605 52.1104V57.6037H71.065C71.8245 57.6037 72.437 58.2234 72.437 58.9875V63.4773C72.4379 63.6588 72.4031 63.8387 72.3344 64.0066C72.2658 64.1745 72.1648 64.327 72.0372 64.4554C71.9096 64.5838 71.758 64.6854 71.5911 64.7545C71.4243 64.8235 71.2454 64.8586 71.065 64.8576H65.605V70.3509C65.6064 70.5328 65.5719 70.7131 65.5035 70.8814C65.4351 71.0497 65.3341 71.2026 65.2065 71.3314C65.0788 71.4601 64.9271 71.5621 64.76 71.6313C64.5928 71.7006 64.4137 71.7358 64.233 71.7348H59.767C59.5866 71.7358 59.4077 71.7007 59.2409 71.6317C59.074 71.5626 58.9224 71.461 58.7948 71.3326C58.6672 71.2042 58.5662 71.0517 58.4975 70.8838C58.4289 70.7159 58.3941 70.536 58.395 70.3545V64.8612H52.935C52.7543 64.8621 52.5752 64.8269 52.408 64.7577C52.2409 64.6884 52.0892 64.5864 51.9615 64.4577C51.8339 64.329 51.7329 64.176 51.6645 64.0077C51.5961 63.8394 51.5616 63.6591 51.563 63.4773V58.9875C51.563 58.2234 52.1755 57.6072 52.935 57.6072H58.395V52.1104Z" fill="#1E94A2"/>
<defs>
<filter id="filter0_d_1524_31" x="0" y="0" width="124" height="124" filterUnits="userSpaceOnUse" color-interpolation-filters="sRGB">
<feFlood flood-opacity="0" result="BackgroundImageFix"/>
<feColorMatrix in="SourceAlpha" type="matrix" values="0 0 0 0 0 0 0 0 0 0 0 0 0 0 0 0 0 0 127 0" result="hardAlpha"/>
<feOffset dy="4"/>
<feGaussianBlur stdDeviation="6"/>
<feComposite in2="hardAlpha" operator="out"/>
<feColorMatrix type="matrix" values="0 0 0 0 0 0 0 0 0 0 0 0 0 0 0 0 0 0 0.25 0"/>
<feBlend mode="normal" in2="BackgroundImageFix" result="effect1_dropShadow_1524_31"/>
<feBlend mode="normal" in="SourceGraphic" in2="effect1_dropShadow_1524_31" result="shape"/>
</filter>
</defs>
</svg>
