<svg width="27" height="27" viewBox="0 0 27 27" fill="none" xmlns="http://www.w3.org/2000/svg">
<path fill-rule="evenodd" clip-rule="evenodd" d="M10.095 0.666504L0.666992 10.0945L5.85233 15.2798L15.2803 5.85184L10.095 0.666504ZM9.20966 3.5665L8.26633 4.50984L11.5663 7.80984L12.509 6.8665L9.20966 3.5665ZM6.85233 5.92384L5.90966 6.8665L9.20966 10.1665L10.1523 9.22384L6.85233 5.92384ZM4.49499 8.28117L3.55233 9.22384L6.85233 12.5238L7.79499 11.5805L4.49499 8.28117Z" fill="#1E94A2"/>
<path fill-rule="evenodd" clip-rule="evenodd" d="M5.90918 13.4665L13.4518 5.92383L25.2365 17.7092C25.7409 18.2023 26.1424 18.7907 26.4178 19.4401C26.6932 20.0895 26.837 20.7871 26.841 21.4925C26.8449 22.1979 26.7089 22.8971 26.4408 23.5496C26.1726 24.202 25.7778 24.7948 25.279 25.2936C24.7802 25.7924 24.1874 26.1873 23.5349 26.4554C22.8824 26.7235 22.1833 26.8596 21.4779 26.8556C20.7725 26.8517 20.0749 26.7078 19.4255 26.4324C18.776 26.157 18.1877 25.7555 17.6945 25.2512L5.90918 13.4665ZM7.79451 13.4665L18.6372 24.3085C19.3894 25.0486 20.4036 25.4614 21.4588 25.4571C22.514 25.4528 23.5248 25.0317 24.2709 24.2856C25.0171 23.5394 25.4381 22.5286 25.4424 21.4734C25.4467 20.4182 25.0339 19.404 24.2938 18.6518L13.4518 7.80916L7.79451 13.4665Z" fill="#1E94A2"/>
<path fill-rule="evenodd" clip-rule="evenodd" d="M11.0947 13.9378L16.2807 8.75244L24.2941 16.7658L19.1087 21.9518L11.0947 13.9378ZM12.9807 13.9378L19.1087 20.0658L22.4087 16.7658L16.2807 10.6378L12.9807 13.9378Z" fill="#1E94A2"/>
<path fill-rule="evenodd" clip-rule="evenodd" d="M16.0439 17.9444C15.1012 18.4158 13.9225 19.5944 13.6865 20.3018L18.1652 24.7798C19.0403 25.655 20.2273 26.1467 21.465 26.1468C22.7026 26.1468 23.8896 25.6552 24.7649 24.7801C25.6401 23.905 26.1318 22.718 26.1319 21.4803C26.1319 20.2426 25.6403 19.0556 24.7652 18.1804L23.3505 16.7671L19.1085 21.0091L16.0439 17.9444Z" fill="#1E94A2"/>
<path fill-rule="evenodd" clip-rule="evenodd" d="M14.5038 20.1751L18.6371 24.3084C19.3873 25.0586 20.4047 25.4801 21.4656 25.4802C22.5265 25.4802 23.5439 25.0589 24.2941 24.3087C25.0443 23.5586 25.4658 22.5412 25.4659 21.4803C25.466 20.4194 25.0446 19.4019 24.2945 18.6517L23.3511 17.7091L19.1091 21.9517L15.9391 18.7817C15.6288 18.9964 15.3387 19.239 15.0725 19.5064C14.8632 19.7117 14.6728 19.9355 14.5038 20.1751ZM14.1291 18.5631C14.6038 18.0884 15.1911 17.6257 15.7465 17.3484L15.8265 17.3084L16.2638 17.2204L19.1091 20.0657L23.3511 15.8237L25.2378 17.7091C25.738 18.2032 26.1355 18.7914 26.4075 19.4398C26.6795 20.0882 26.8206 20.7839 26.8227 21.487C26.8248 22.1901 26.6878 22.8867 26.4197 23.5367C26.1516 24.1867 25.7576 24.7772 25.2604 25.2744C24.7632 25.7715 24.1726 26.1654 23.5226 26.4335C22.8726 26.7016 22.176 26.8384 21.4729 26.8363C20.7698 26.8341 20.0741 26.6929 19.4258 26.4209C18.7774 26.1488 18.1893 25.7513 17.6951 25.2511L12.9805 20.5377L13.0358 20.1477L13.0551 20.0911C13.2238 19.5837 13.6711 19.0211 14.1291 18.5631Z" fill="#1E94A2"/>
</svg>
