<svg width="69" height="69" viewBox="0 0 69 69" fill="none" xmlns="http://www.w3.org/2000/svg">
<path fill-rule="evenodd" clip-rule="evenodd" d="M11.9945 9.1195C8.625 12.4861 8.625 17.9084 8.625 28.75V40.25C8.625 51.0916 8.625 56.5139 11.9945 59.8805C15.364 63.2471 20.7834 63.25 31.625 63.25H37.375C48.2166 63.25 53.6389 63.25 57.0055 59.8805C60.3721 56.511 60.375 51.0916 60.375 40.25V28.75C60.375 17.9084 60.375 12.4861 57.0055 9.1195C53.636 5.75287 48.2166 5.75 37.375 5.75H31.625C20.7834 5.75 15.3611 5.75 11.9945 9.1195ZM36.6562 17.25C36.6562 16.6781 36.4291 16.1297 36.0247 15.7253C35.6203 15.3209 35.0719 15.0937 34.5 15.0937C33.9281 15.0937 33.3797 15.3209 32.9753 15.7253C32.5709 16.1297 32.3438 16.6781 32.3438 17.25V20.8437H28.75C28.1781 20.8437 27.6297 21.0709 27.2253 21.4753C26.8209 21.8797 26.5938 22.4281 26.5938 23C26.5938 23.5719 26.8209 24.1203 27.2253 24.5247C27.6297 24.9291 28.1781 25.1562 28.75 25.1562H32.3438V28.75C32.3438 29.3219 32.5709 29.8703 32.9753 30.2747C33.3797 30.6791 33.9281 30.9062 34.5 30.9062C35.0719 30.9062 35.6203 30.6791 36.0247 30.2747C36.4291 29.8703 36.6562 29.3219 36.6562 28.75V25.1562H40.25C40.8219 25.1562 41.3703 24.9291 41.7747 24.5247C42.1791 24.1203 42.4062 23.5719 42.4062 23C42.4062 22.4281 42.1791 21.8797 41.7747 21.4753C41.3703 21.0709 40.8219 20.8437 40.25 20.8437H36.6562V17.25ZM23 38.0937C22.4281 38.0937 21.8797 38.3209 21.4753 38.7253C21.0709 39.1297 20.8438 39.6781 20.8438 40.25C20.8438 40.8219 21.0709 41.3703 21.4753 41.7747C21.8797 42.1791 22.4281 42.4062 23 42.4062H46C46.5719 42.4062 47.1203 42.1791 47.5247 41.7747C47.9291 41.3703 48.1562 40.8219 48.1562 40.25C48.1562 39.6781 47.9291 39.1297 47.5247 38.7253C47.1203 38.3209 46.5719 38.0937 46 38.0937H23ZM25.875 49.5937C25.3031 49.5937 24.7547 49.8209 24.3503 50.2253C23.9459 50.6297 23.7188 51.1781 23.7188 51.75C23.7188 52.3219 23.9459 52.8703 24.3503 53.2747C24.7547 53.6791 25.3031 53.9062 25.875 53.9062H43.125C43.6969 53.9062 44.2453 53.6791 44.6497 53.2747C45.0541 52.8703 45.2812 52.3219 45.2812 51.75C45.2812 51.1781 45.0541 50.6297 44.6497 50.2253C44.2453 49.8209 43.6969 49.5937 43.125 49.5937H25.875Z" fill="#FA7F72"/>
</svg>
