<svg width="124" height="124" viewBox="0 0 124 124" fill="none" xmlns="http://www.w3.org/2000/svg">
<g filter="url(#filter0_d_1499_31)">
<circle cx="60" cy="58" r="50" fill="white"/>
</g>
<path d="M62.6238 34C59.8389 34 57.168 35.2221 55.1988 37.3975C53.2295 39.5729 52.1232 42.5234 52.1232 45.5999C52.1232 48.6764 53.2295 51.6268 55.1988 53.8022C57.168 55.9776 59.8389 57.1998 62.6238 57.1998C65.4088 57.1998 68.0797 55.9776 70.0489 53.8022C72.0182 51.6268 73.1245 48.6764 73.1245 45.5999C73.1245 42.5234 72.0182 39.5729 70.0489 37.3975C68.0797 35.2221 65.4088 34 62.6238 34ZM75.3953 76.9109C72.5837 78.8916 68.9531 79.9964 64.9944 80.3067C64.7968 79.7309 64.4908 79.2081 64.0966 78.7727L58.8462 72.9756C59.6055 71.2187 59.9992 69.2965 59.9987 67.3497C59.999 64.7688 59.3065 62.2459 58.0088 60.0997H75.7497C77.1421 60.0997 78.4776 60.7108 79.4622 61.7985C80.4468 62.8862 81 64.3614 81 65.8997C81 70.8035 78.8132 74.501 75.3953 76.9109ZM48.1854 77.4996C50.2488 77.4996 52.1547 76.7456 53.6878 75.4783L60.382 82.8732C60.5038 83.008 60.6485 83.115 60.8078 83.188C60.9671 83.2611 61.1379 83.2987 61.3103 83.2989C61.4828 83.299 61.6536 83.2616 61.813 83.1888C61.9724 83.116 62.1172 83.0093 62.2393 82.8747C62.3613 82.74 62.4581 82.5802 62.5243 82.4042C62.5904 82.2283 62.6245 82.0396 62.6246 81.8491C62.6247 81.6586 62.5909 81.4699 62.525 81.2938C62.4591 81.1178 62.3624 80.9578 62.2406 80.8229L55.5464 73.428C56.7855 71.5975 57.429 69.3585 57.3728 67.0736C57.3165 64.7888 56.5637 62.5918 55.2364 60.8384C53.909 59.085 52.0847 57.8778 50.059 57.4124C48.0332 56.947 45.9245 57.2505 44.0744 58.2739C42.2242 59.2973 40.7409 60.9806 39.8646 63.0512C38.9884 65.1218 38.7704 67.4585 39.2461 69.683C39.7218 71.9075 40.8632 73.8896 42.4856 75.3082C44.108 76.7268 46.1163 77.4989 48.1854 77.4996ZM48.1854 74.5996C46.4449 74.5996 44.7756 73.8358 43.5448 72.4761C42.314 71.1165 41.6225 69.2725 41.6225 67.3497C41.6225 65.4269 42.314 63.5828 43.5448 62.2232C44.7756 60.8636 46.4449 60.0997 48.1854 60.0997C49.926 60.0997 51.5953 60.8636 52.8261 62.2232C54.0569 63.5828 54.7484 65.4269 54.7484 67.3497C54.7484 69.2725 54.0569 71.1165 52.8261 72.4761C51.5953 73.8358 49.926 74.5996 48.1854 74.5996Z" fill="#1E94A2"/>
<defs>
<filter id="filter0_d_1499_31" x="0" y="0" width="124" height="124" filterUnits="userSpaceOnUse" color-interpolation-filters="sRGB">
<feFlood flood-opacity="0" result="BackgroundImageFix"/>
<feColorMatrix in="SourceAlpha" type="matrix" values="0 0 0 0 0 0 0 0 0 0 0 0 0 0 0 0 0 0 127 0" result="hardAlpha"/>
<feOffset dx="2" dy="4"/>
<feGaussianBlur stdDeviation="6"/>
<feComposite in2="hardAlpha" operator="out"/>
<feColorMatrix type="matrix" values="0 0 0 0 0 0 0 0 0 0 0 0 0 0 0 0 0 0 0.25 0"/>
<feBlend mode="normal" in2="BackgroundImageFix" result="effect1_dropShadow_1499_31"/>
<feBlend mode="normal" in="SourceGraphic" in2="effect1_dropShadow_1499_31" result="shape"/>
</filter>
</defs>
</svg>
