<svg width="24" height="24" viewBox="0 0 24 24" fill="none" xmlns="http://www.w3.org/2000/svg">
<path d="M5.00011 19C4.71678 19 4.47945 18.904 4.28811 18.712C4.09678 18.52 4.00078 18.2827 4.00011 18C3.99945 17.7173 4.09545 17.48 4.28811 17.288C4.48078 17.096 4.71811 17 5.00011 17H6.00011V10C6.00011 8.61667 6.41678 7.38767 7.25011 6.313C8.08345 5.23834 9.16678 4.534 10.5001 4.2V3.5C10.5001 3.08334 10.6461 2.72934 10.9381 2.438C11.2301 2.14667 11.5841 2.00067 12.0001 2C12.4161 1.99934 12.7704 2.14534 13.0631 2.438C13.3558 2.73067 13.5014 3.08467 13.5001 3.5V4.2C14.8334 4.53334 15.9168 5.23767 16.7501 6.313C17.5834 7.38834 18.0001 8.61734 18.0001 10V17H19.0001C19.2834 17 19.5211 17.096 19.7131 17.288C19.9051 17.48 20.0008 17.7173 20.0001 18C19.9994 18.2827 19.9034 18.5203 19.7121 18.713C19.5208 18.9057 19.2834 19.0013 19.0001 19H5.00011ZM12.0001 22C11.4501 22 10.9794 21.8043 10.5881 21.413C10.1968 21.0217 10.0008 20.5507 10.0001 20H14.0001C14.0001 20.55 13.8044 21.021 13.4131 21.413C13.0218 21.805 12.5508 22.0007 12.0001 22ZM8.00011 17H16.0001V10C16.0001 8.9 15.6084 7.95834 14.8251 7.175C14.0418 6.39167 13.1001 6 12.0001 6C10.9001 6 9.95845 6.39167 9.17511 7.175C8.39178 7.95834 8.00011 8.9 8.00011 10V17ZM3.00011 10C2.71678 10 2.47945 9.89167 2.28811 9.675C2.09678 9.45834 2.01745 9.20834 2.05011 8.925C2.18345 7.675 2.53345 6.51234 3.10011 5.437C3.66678 4.36167 4.39178 3.42434 5.27511 2.625C5.49178 2.44167 5.73778 2.35834 6.01311 2.375C6.28845 2.39167 6.50911 2.51667 6.67511 2.75C6.84111 2.98334 6.90778 3.23334 6.87511 3.5C6.84245 3.76667 6.71745 4 6.50011 4.2C5.85011 4.81667 5.31678 5.53334 4.90011 6.35C4.48345 7.16667 4.20845 8.05 4.07511 9C4.04178 9.28334 3.92511 9.521 3.72511 9.713C3.52511 9.905 3.28345 10.0007 3.00011 10ZM21.0001 10C20.7168 10 20.4751 9.904 20.2751 9.712C20.0751 9.52 19.9584 9.28267 19.9251 9C19.7918 8.05 19.5168 7.16667 19.1001 6.35C18.6834 5.53334 18.1501 4.81667 17.5001 4.2C17.2834 4 17.1584 3.76667 17.1251 3.5C17.0918 3.23334 17.1584 2.98334 17.3251 2.75C17.4918 2.51667 17.7128 2.39167 17.9881 2.375C18.2634 2.35834 18.5091 2.44167 18.7251 2.625C19.6084 3.425 20.3334 4.36234 20.9001 5.437C21.4668 6.51167 21.8168 7.67434 21.9501 8.925C21.9834 9.20834 21.9044 9.45834 21.7131 9.675C21.5218 9.89167 21.2841 10 21.0001 10Z" fill="#1E94A2"/>
</svg>
