<svg width="24" height="20" viewBox="0 0 24 20" fill="none" xmlns="http://www.w3.org/2000/svg">
<path d="M16.6597 12.1547C15.8348 12.1547 15.1317 11.8658 14.5504 11.288C13.969 10.7102 13.6784 10.0093 13.6784 9.18533C13.6784 8.36133 13.9673 7.65867 14.545 7.07733C15.1228 6.496 15.8237 6.20533 16.6477 6.20533C17.4717 6.20533 18.1744 6.49422 18.7557 7.072C19.337 7.64978 19.6277 8.35022 19.6277 9.17333C19.6277 9.99644 19.3388 10.6996 18.761 11.2827C18.1833 11.8658 17.4828 12.1564 16.6597 12.1547ZM10.7557 19.128C10.4508 19.128 10.1953 19.0249 9.98903 18.8187C9.78281 18.6124 9.6797 18.3569 9.6797 18.052V17.62C9.6797 17.3302 9.75214 17.0538 9.89703 16.7907C10.0419 16.5276 10.2375 16.3169 10.4837 16.1587C11.4161 15.6271 12.3939 15.22 13.417 14.9373C14.4393 14.6538 15.5184 14.512 16.6544 14.512C17.7886 14.512 18.8673 14.6538 19.8904 14.9373C20.9135 15.22 21.8913 15.6271 22.8237 16.1587C23.069 16.3178 23.2646 16.5284 23.4104 16.7907C23.5561 17.0529 23.6286 17.3293 23.6277 17.62V18.0507C23.6277 18.3564 23.5246 18.6124 23.3184 18.8187C23.1121 19.0249 22.8561 19.128 22.5504 19.128H10.7557ZM9.34636 12H1.34636C1.15703 12 0.998363 11.936 0.870363 11.808C0.742363 11.68 0.678808 11.5213 0.679697 11.332C0.680586 11.1427 0.744141 10.9844 0.870363 10.8573C0.996585 10.7302 1.15525 10.6667 1.34636 10.6667H9.34636C9.53481 10.6667 9.69303 10.7307 9.82103 10.8587C9.94903 10.9867 10.013 11.1453 10.013 11.3347C10.013 11.524 9.94903 11.6822 9.82103 11.8093C9.69303 11.9364 9.53481 12 9.34636 12ZM14.6797 1.33333H1.34636C1.15703 1.33333 0.998363 1.26933 0.870363 1.14133C0.742363 1.01333 0.678808 0.854667 0.679697 0.665333C0.680586 0.476 0.744141 0.317778 0.870363 0.190667C0.996585 0.0635557 1.15525 0 1.34636 0H14.6797C14.8681 0 15.0264 0.0640001 15.1544 0.192C15.2824 0.32 15.3464 0.478667 15.3464 0.668C15.3464 0.857333 15.2824 1.01556 15.1544 1.14267C15.0264 1.26978 14.8681 1.33333 14.6797 1.33333ZM11.0944 6.66667H1.34636C1.15703 6.66667 0.998363 6.60267 0.870363 6.47467C0.742363 6.34667 0.678808 6.188 0.679697 5.99867C0.680586 5.80933 0.744141 5.65111 0.870363 5.524C0.996585 5.39689 1.15525 5.33333 1.34636 5.33333H11.8584C11.701 5.54044 11.5579 5.75067 11.429 5.964C11.3001 6.17733 11.1877 6.41156 11.0944 6.66667Z" fill="white"/>
</svg>
