<svg width="96" height="96" viewBox="0 0 96 96" fill="none" xmlns="http://www.w3.org/2000/svg">
<circle cx="48" cy="48" r="48" fill="#1E94A2"/>
<path fill-rule="evenodd" clip-rule="evenodd" d="M24.8229 19.8857C25.9871 18.6798 27.5667 18.0015 29.2143 18H54.0714C54.3436 17.9995 54.6133 18.0545 54.8649 18.1619C55.1166 18.2692 55.3453 18.4269 55.538 18.6257L72.1094 35.7686C72.3017 35.9679 72.454 36.2045 72.5578 36.4649C72.6616 36.7252 72.7148 37.0041 72.7143 37.2857V71.5714C72.7143 73.2764 72.0596 74.9115 70.8942 76.1171C69.7288 77.3227 68.1481 78 66.5 78H29.2143C27.5662 78 25.9855 77.3227 24.8201 76.1171C23.6547 74.9115 23 73.2764 23 71.5714V24.4286C23 22.7229 23.6546 21.0857 24.8229 19.8857ZM43.59 41.2586C43.59 40.3329 44.3191 39.5786 45.2181 39.5786H50.5003C51.3951 39.5786 52.1243 40.3329 52.1243 41.2586V47.9443H58.5871C59.4861 47.9443 60.2111 48.6986 60.2111 49.6286V55.0929C60.2122 55.3138 60.171 55.5328 60.0898 55.7371C60.0085 55.9414 59.889 56.1271 59.7379 56.2833C59.5869 56.4396 59.4074 56.5633 59.2099 56.6473C59.0124 56.7313 58.8007 56.774 58.5871 56.7729H52.1243V63.4586C52.1259 63.6799 52.0851 63.8993 52.0041 64.1041C51.9231 64.309 51.8036 64.4951 51.6526 64.6518C51.5015 64.8085 51.3218 64.9326 51.124 65.0169C50.9262 65.1012 50.7142 65.144 50.5003 65.1429H45.214C45.0004 65.144 44.7888 65.1013 44.5912 65.0173C44.3937 64.9333 44.2142 64.8096 44.0632 64.6533C43.9122 64.4971 43.7926 64.3114 43.7114 64.1071C43.6302 63.9028 43.5889 63.6838 43.59 63.4629V56.7771H37.1271C36.9132 56.7783 36.7012 56.7355 36.5034 56.6512C36.3056 56.5669 36.1259 56.4428 35.9749 56.2861C35.8238 56.1294 35.7043 55.9433 35.6233 55.7384C35.5423 55.5336 35.5015 55.3142 35.5031 55.0929V49.6286C35.5031 48.6986 36.2281 47.9486 37.1271 47.9486H43.59V41.2586Z" fill="white"/>
</svg>
