<svg width="28" height="28" viewBox="0 0 28 28" fill="none" xmlns="http://www.w3.org/2000/svg">
<path d="M10.0003 17.8897V18.667C10.0003 20.2583 10.6325 21.7844 11.7577 22.9096C12.8829 24.0348 14.409 24.667 16.0003 24.667C17.5916 24.667 19.1177 24.0348 20.243 22.9096C21.3682 21.7844 22.0003 20.2583 22.0003 18.667V16.4403C21.1103 16.1258 20.3602 15.5067 19.8825 14.6926C19.4048 13.8784 19.2303 12.9216 19.3899 11.9913C19.5495 11.0609 20.0328 10.2169 20.7545 9.60849C21.4762 9.00005 22.3897 8.66634 23.3337 8.66634C24.2776 8.66634 25.1911 9.00005 25.9128 9.60849C26.6345 10.2169 27.1178 11.0609 27.2774 11.9913C27.437 12.9216 27.2625 13.8784 26.7848 14.6926C26.3071 15.5067 25.557 16.1258 24.667 16.4403V18.667C24.667 20.9655 23.7539 23.1699 22.1286 24.7952C20.5033 26.4206 18.2989 27.3337 16.0003 27.3337C13.7018 27.3337 11.4974 26.4206 9.87207 24.7952C8.24675 23.1699 7.33366 20.9655 7.33366 18.667V17.8897C5.46933 17.5745 3.77687 16.6093 2.5565 15.1651C1.33612 13.7209 0.666702 11.8911 0.666992 10.0003V3.33366C0.666992 2.62641 0.947944 1.94814 1.44804 1.44804C1.94814 0.947944 2.62641 0.666992 3.33366 0.666992L4.66699 0.666992C5.02061 0.666992 5.35975 0.807468 5.6098 1.05752C5.85985 1.30756 6.00033 1.6467 6.00033 2.00033C6.00033 2.35395 5.85985 2.69309 5.6098 2.94313C5.35975 3.19318 5.02061 3.33366 4.66699 3.33366H3.33366V10.0003C3.33366 11.4148 3.89556 12.7714 4.89576 13.7716C5.89595 14.7718 7.2525 15.3337 8.66699 15.3337C10.0815 15.3337 11.438 14.7718 12.4382 13.7716C13.4384 12.7714 14.0003 11.4148 14.0003 10.0003V3.33366H12.667C12.3134 3.33366 11.9742 3.19318 11.7242 2.94313C11.4741 2.69309 11.3337 2.35395 11.3337 2.00033C11.3337 1.6467 11.4741 1.30756 11.7242 1.05752C11.9742 0.807468 12.3134 0.666992 12.667 0.666992L14.0003 0.666992C14.7076 0.666992 15.3858 0.947944 15.8859 1.44804C16.386 1.94814 16.667 2.62641 16.667 3.33366V10.0003C16.6673 11.8911 15.9979 13.7209 14.7775 15.1651C13.5571 16.6093 11.8647 17.5745 10.0003 17.8897ZM23.3337 14.0003C23.6873 14.0003 24.0264 13.8598 24.2765 13.6098C24.5265 13.3598 24.667 13.0206 24.667 12.667C24.667 12.3134 24.5265 11.9742 24.2765 11.7242C24.0264 11.4741 23.6873 11.3337 23.3337 11.3337C22.98 11.3337 22.6409 11.4741 22.3908 11.7242C22.1408 11.9742 22.0003 12.3134 22.0003 12.667C22.0003 13.0206 22.1408 13.3598 22.3908 13.6098C22.6409 13.8598 22.98 14.0003 23.3337 14.0003Z" fill="white"/>
</svg>
