<svg width="32" height="32" viewBox="0 0 32 32" fill="none" xmlns="http://www.w3.org/2000/svg">
<path d="M12.0003 19.8897V20.667C12.0003 22.2583 12.6325 23.7844 13.7577 24.9096C14.8829 26.0348 16.409 26.667 18.0003 26.667C19.5916 26.667 21.1177 26.0348 22.243 24.9096C23.3682 23.7844 24.0003 22.2583 24.0003 20.667V18.4403C23.1103 18.1258 22.3602 17.5067 21.8825 16.6926C21.4048 15.8784 21.2303 14.9216 21.3899 13.9913C21.5495 13.0609 22.0328 12.2169 22.7545 11.6085C23.4762 11.0001 24.3897 10.6663 25.3337 10.6663C26.2776 10.6663 27.1911 11.0001 27.9128 11.6085C28.6345 12.2169 29.1178 13.0609 29.2774 13.9913C29.437 14.9216 29.2625 15.8784 28.7848 16.6926C28.3071 17.5067 27.557 18.1258 26.667 18.4403V20.667C26.667 22.9655 25.7539 25.1699 24.1286 26.7952C22.5033 28.4206 20.2989 29.3337 18.0003 29.3337C15.7018 29.3337 13.4974 28.4206 11.8721 26.7952C10.2468 25.1699 9.33366 22.9655 9.33366 20.667V19.8897C7.46933 19.5745 5.77687 18.6093 4.5565 17.1651C3.33612 15.7209 2.6667 13.8911 2.66699 12.0003V5.33366C2.66699 4.62641 2.94794 3.94814 3.44804 3.44804C3.94814 2.94794 4.62641 2.66699 5.33366 2.66699H6.66699C7.02061 2.66699 7.35975 2.80747 7.6098 3.05752C7.85985 3.30756 8.00033 3.6467 8.00033 4.00033C8.00033 4.35395 7.85985 4.69309 7.6098 4.94313C7.35975 5.19318 7.02061 5.33366 6.66699 5.33366H5.33366V12.0003C5.33366 13.4148 5.89556 14.7714 6.89576 15.7716C7.89595 16.7718 9.2525 17.3337 10.667 17.3337C12.0815 17.3337 13.438 16.7718 14.4382 15.7716C15.4384 14.7714 16.0003 13.4148 16.0003 12.0003V5.33366H14.667C14.3134 5.33366 13.9742 5.19318 13.7242 4.94313C13.4741 4.69309 13.3337 4.35395 13.3337 4.00033C13.3337 3.6467 13.4741 3.30756 13.7242 3.05752C13.9742 2.80747 14.3134 2.66699 14.667 2.66699H16.0003C16.7076 2.66699 17.3858 2.94794 17.8859 3.44804C18.386 3.94814 18.667 4.62641 18.667 5.33366V12.0003C18.6673 13.8911 17.9979 15.7209 16.7775 17.1651C15.5571 18.6093 13.8647 19.5745 12.0003 19.8897ZM25.3337 16.0003C25.6873 16.0003 26.0264 15.8598 26.2765 15.6098C26.5265 15.3598 26.667 15.0206 26.667 14.667C26.667 14.3134 26.5265 13.9742 26.2765 13.7242C26.0264 13.4741 25.6873 13.3337 25.3337 13.3337C24.98 13.3337 24.6409 13.4741 24.3908 13.7242C24.1408 13.9742 24.0003 14.3134 24.0003 14.667C24.0003 15.0206 24.1408 15.3598 24.3908 15.6098C24.6409 15.8598 24.98 16.0003 25.3337 16.0003Z" fill="black"/>
</svg>
