<svg width="24" height="28" viewBox="0 0 24 28" fill="none" xmlns="http://www.w3.org/2000/svg">
<path fill-rule="evenodd" clip-rule="evenodd" d="M1.56267 2.22966C-1.58946e-07 3.79099 0 6.30566 0 11.3337V16.667C0 21.695 -1.58946e-07 24.2097 1.56267 25.771C3.12533 27.3323 5.63867 27.3337 10.6667 27.3337H13.3333C18.3613 27.3337 20.876 27.3337 22.4373 25.771C23.9987 24.2083 24 21.695 24 16.667V11.3337C24 6.30566 24 3.79099 22.4373 2.22966C20.8747 0.668325 18.3613 0.666992 13.3333 0.666992H10.6667C5.63867 0.666992 3.124 0.666992 1.56267 2.22966ZM13 6.00033C13 5.73511 12.8946 5.48075 12.7071 5.29322C12.5196 5.10568 12.2652 5.00033 12 5.00033C11.7348 5.00033 11.4804 5.10568 11.2929 5.29322C11.1054 5.48075 11 5.73511 11 6.00033V7.66699H9.33333C9.06812 7.66699 8.81376 7.77235 8.62623 7.95988C8.43869 8.14742 8.33333 8.40178 8.33333 8.66699C8.33333 8.93221 8.43869 9.18656 8.62623 9.3741C8.81376 9.56163 9.06812 9.66699 9.33333 9.66699H11V11.3337C11 11.5989 11.1054 11.8532 11.2929 12.0408C11.4804 12.2283 11.7348 12.3337 12 12.3337C12.2652 12.3337 12.5196 12.2283 12.7071 12.0408C12.8946 11.8532 13 11.5989 13 11.3337V9.66699H14.6667C14.9319 9.66699 15.1862 9.56163 15.3738 9.3741C15.5613 9.18656 15.6667 8.93221 15.6667 8.66699C15.6667 8.40178 15.5613 8.14742 15.3738 7.95988C15.1862 7.77235 14.9319 7.66699 14.6667 7.66699H13V6.00033ZM6.66667 15.667C6.40145 15.667 6.1471 15.7723 5.95956 15.9599C5.77202 16.1474 5.66667 16.4018 5.66667 16.667C5.66667 16.9322 5.77202 17.1866 5.95956 17.3741C6.1471 17.5616 6.40145 17.667 6.66667 17.667H17.3333C17.5986 17.667 17.8529 17.5616 18.0404 17.3741C18.228 17.1866 18.3333 16.9322 18.3333 16.667C18.3333 16.4018 18.228 16.1474 18.0404 15.9599C17.8529 15.7723 17.5986 15.667 17.3333 15.667H6.66667ZM8 21.0003C7.73478 21.0003 7.48043 21.1057 7.29289 21.2932C7.10536 21.4808 7 21.7351 7 22.0003C7 22.2655 7.10536 22.5199 7.29289 22.7074C7.48043 22.895 7.73478 23.0003 8 23.0003H16C16.2652 23.0003 16.5196 22.895 16.7071 22.7074C16.8946 22.5199 17 22.2655 17 22.0003C17 21.7351 16.8946 21.4808 16.7071 21.2932C16.5196 21.1057 16.2652 21.0003 16 21.0003H8Z" fill="white"/>
</svg>
