<svg width="58" height="66" viewBox="0 0 58 66" fill="none" xmlns="http://www.w3.org/2000/svg">
<g clip-path="url(#clip0_432_1377)">
<path d="M0 12.375C0 5.54297 5.54297 0 12.375 0H53.625C55.9066 0 57.75 1.84336 57.75 4.125V45.375C57.75 47.6566 55.9066 49.5 53.625 49.5V57.75C55.9066 57.75 57.75 59.5934 57.75 61.875C57.75 64.1566 55.9066 66 53.625 66H12.375C5.54297 66 0 60.457 0 53.625V12.375ZM8.25 53.625C8.25 55.9066 10.0934 57.75 12.375 57.75H45.375V49.5H12.375C10.0934 49.5 8.25 51.3434 8.25 53.625ZM26.8125 14.4375V20.625H20.625C19.4906 20.625 18.5625 21.5531 18.5625 22.6875V26.8125C18.5625 27.9469 19.4906 28.875 20.625 28.875H26.8125V35.0625C26.8125 36.1969 27.7406 37.125 28.875 37.125H33C34.1344 37.125 35.0625 36.1969 35.0625 35.0625V28.875H41.25C42.3844 28.875 43.3125 27.9469 43.3125 26.8125V22.6875C43.3125 21.5531 42.3844 20.625 41.25 20.625H35.0625V14.4375C35.0625 13.3031 34.1344 12.375 33 12.375H28.875C27.7406 12.375 26.8125 13.3031 26.8125 14.4375Z" fill="#FA7F72"/>
</g>
<defs>
<clipPath id="clip0_432_1377">
<rect width="57.75" height="66" fill="white"/>
</clipPath>
</defs>
</svg>
