<svg width="21" height="21" viewBox="0 0 21 21" fill="none" xmlns="http://www.w3.org/2000/svg">
<path d="M17.523 16.3206L14.6463 13.4524C15.5744 12.27 16.078 10.8098 16.0762 9.30664C16.0762 7.96795 15.6792 6.65932 14.9355 5.54624C14.1917 4.43315 13.1346 3.56561 11.8978 3.05331C10.661 2.54102 9.30011 2.40698 7.98714 2.66814C6.67417 2.92931 5.46813 3.57395 4.52153 4.52055C3.57493 5.46715 2.93029 6.67319 2.66912 7.98616C2.40796 9.29914 2.542 10.6601 3.05429 11.8969C3.56659 13.1336 4.43413 14.1908 5.54721 14.9345C6.6603 15.6782 7.96893 16.0752 9.30762 16.0752C10.8108 16.0771 12.2709 15.5735 13.4534 14.6453L16.3215 17.522C16.4002 17.6013 16.4938 17.6642 16.5969 17.7072C16.7 17.7501 16.8106 17.7722 16.9222 17.7722C17.0339 17.7722 17.1445 17.7501 17.2476 17.7072C17.3507 17.6642 17.4443 17.6013 17.523 17.522C17.6023 17.4433 17.6652 17.3497 17.7082 17.2466C17.7511 17.1435 17.7732 17.033 17.7732 16.9213C17.7732 16.8096 17.7511 16.699 17.7082 16.5959C17.6652 16.4928 17.6023 16.3992 17.523 16.3206ZM4.2312 9.30664C4.2312 8.30262 4.52893 7.32115 5.08673 6.48634C5.64454 5.65153 6.43737 5.00087 7.36496 4.61665C8.29255 4.23242 9.31325 4.13189 10.298 4.32777C11.2827 4.52364 12.1872 5.00713 12.8972 5.71708C13.6071 6.42703 14.0906 7.33156 14.2865 8.31628C14.4824 9.30101 14.3818 10.3217 13.9976 11.2493C13.6134 12.1769 12.9627 12.9697 12.1279 13.5275C11.2931 14.0853 10.3116 14.3831 9.30762 14.3831C7.96127 14.3831 6.67006 13.8482 5.71805 12.8962C4.76604 11.9442 4.2312 10.653 4.2312 9.30664Z" fill="#231F20"/>
</svg>
