<svg width="69" height="66" viewBox="0 0 69 66" fill="none" xmlns="http://www.w3.org/2000/svg">
<g clip-path="url(#clip0_903_18)">
<rect width="69" height="66" rx="33" fill="#1E94A2"/>
<path d="M35 21C36.5913 21 38.1174 21.6321 39.2426 22.7574C40.3679 23.8826 41 25.4087 41 27C41 28.5913 40.3679 30.1174 39.2426 31.2426C38.1174 32.3679 36.5913 33 35 33C33.4087 33 31.8826 32.3679 30.7574 31.2426C29.6321 30.1174 29 28.5913 29 27C29 25.4087 29.6321 23.8826 30.7574 22.7574C31.8826 21.6321 33.4087 21 35 21ZM35 36C41.63 36 47 38.685 47 42V45H23V42C23 38.685 28.37 36 35 36Z" fill="white"/>
</g>
<defs>
<clipPath id="clip0_903_18">
<rect width="69" height="66" rx="33" fill="white"/>
</clipPath>
</defs>
</svg>
