<svg width="26" height="28" viewBox="0 0 26 28" fill="none" xmlns="http://www.w3.org/2000/svg">
<path d="M13 14C14.3845 14 15.7378 13.5895 16.889 12.8203C18.0401 12.0511 18.9373 10.9579 19.4672 9.67879C19.997 8.39971 20.1356 6.99224 19.8655 5.63437C19.5954 4.2765 18.9287 3.02922 17.9497 2.05026C16.9708 1.07129 15.7235 0.404603 14.3656 0.134506C13.0078 -0.13559 11.6003 0.00303298 10.3212 0.532846C9.04213 1.06266 7.94888 1.95987 7.17971 3.11101C6.41054 4.26216 6 5.61553 6 7C6 8.85652 6.7375 10.637 8.05025 11.9498C9.36301 13.2625 11.1435 14 13 14ZM13 16C8.66125 16 0 18.68 0 24V28H26V24C26 18.68 17.3387 16 13 16Z" fill="white"/>
</svg>
