<svg width="33" height="24" viewBox="0 0 33 24" fill="none" xmlns="http://www.w3.org/2000/svg">
<path d="M3.3 3.95039C3.3 2.13023 4.77984 0.650391 6.6 0.650391H26.4C28.2202 0.650391 29.7 2.13023 29.7 3.95039V17.1504H26.4V3.95039H6.6V17.1504H3.3V3.95039ZM0 19.7904C0 19.2438 0.443438 18.8004 0.99 18.8004H32.01C32.5566 18.8004 33 19.2438 33 19.7904C33 21.9766 31.2262 23.7504 29.04 23.7504H3.96C1.77375 23.7504 0 21.9766 0 19.7904ZM14.85 7.25039C14.85 6.79664 15.2212 6.42539 15.675 6.42539H17.325C17.7787 6.42539 18.15 6.79664 18.15 7.25039V9.72539H20.625C21.0788 9.72539 21.45 10.0966 21.45 10.5504V12.2004C21.45 12.6541 21.0788 13.0254 20.625 13.0254H18.15V15.5004C18.15 15.9541 17.7787 16.3254 17.325 16.3254H15.675C15.2212 16.3254 14.85 15.9541 14.85 15.5004V13.0254H12.375C11.9212 13.0254 11.55 12.6541 11.55 12.2004V10.5504C11.55 10.0966 11.9212 9.72539 12.375 9.72539H14.85V7.25039Z" fill="white"/>
</svg>
