<svg width="22" height="28" viewBox="0 0 22 28" fill="none" xmlns="http://www.w3.org/2000/svg">
<path d="M10.9997 27.3337C7.91079 26.5559 5.36056 24.7834 3.34901 22.0163C1.33745 19.2492 0.33212 16.1772 0.333008 12.8003V4.66699L10.9997 0.666992L21.6663 4.66699V12.8003C21.6663 16.1781 20.661 19.2505 18.6503 22.0177C16.6397 24.7848 14.0895 26.5568 10.9997 27.3337ZM10.9997 24.5337C13.1552 23.867 14.9552 22.5501 16.3997 20.583C17.8441 18.6159 18.6886 16.4217 18.933 14.0003H10.9997V3.50033L2.99968 6.50033V13.4003C2.99968 13.5559 3.0219 13.7559 3.06634 14.0003H10.9997V24.5337Z" fill="white"/>
</svg>
