<svg width="27" height="30" viewBox="0 0 27 30" fill="none" xmlns="http://www.w3.org/2000/svg">
<path d="M24 13.813V5.66634C24 4.9591 23.719 4.28082 23.219 3.78072C22.7189 3.28063 22.0406 2.99967 21.3333 2.99967H15.76C15.2 1.45301 13.7333 0.333008 12 0.333008C10.2667 0.333008 8.8 1.45301 8.24 2.99967H2.66667C1.2 2.99967 0 4.19967 0 5.66634V24.333C0 25.0403 0.280951 25.7185 0.781048 26.2186C1.28115 26.7187 1.95942 26.9997 2.66667 26.9997H10.8133C12.4933 28.653 14.7867 29.6663 17.3333 29.6663C22.4933 29.6663 26.6667 25.493 26.6667 20.333C26.6667 17.7863 25.6533 15.493 24 13.813ZM12 2.99967C12.7333 2.99967 13.3333 3.59967 13.3333 4.33301C13.3333 5.06634 12.7333 5.66634 12 5.66634C11.2667 5.66634 10.6667 5.06634 10.6667 4.33301C10.6667 3.59967 11.2667 2.99967 12 2.99967ZM4 8.33301H20V10.9997H4V8.33301ZM8.10667 21.6663H4V18.9997H8.10667C8.04 19.4397 8 19.8797 8 20.333C8 20.7863 8.04 21.2263 8.10667 21.6663ZM4 16.333V13.6663H10.8133C10 14.4263 9.38667 15.333 8.90667 16.333H4ZM17.3333 26.9997C13.6533 26.9997 10.6667 24.013 10.6667 20.333C10.6667 16.653 13.6533 13.6663 17.3333 13.6663C21.0133 13.6663 24 16.653 24 20.333C24 24.013 21.0133 26.9997 17.3333 26.9997ZM18 20.6663L21.8133 22.9197L20.8133 24.5463L16 21.6663V14.9997H18V20.6663Z" fill="white"/>
</svg>
