<svg width="158" height="158" viewBox="0 0 158 158" fill="none" xmlns="http://www.w3.org/2000/svg">
<g filter="url(#filter0_d_445_690)">
<circle cx="79" cy="75" r="75" fill="white"/>
<path d="M116.868 56.3885C116.8 55.7576 116.556 55.1525 116.159 54.6299C115.762 54.1072 115.224 53.684 114.597 53.3998L81.4949 38.4002C80.9188 38.1383 80.283 38.0013 79.638 38C78.993 37.9987 78.3565 38.1332 77.7791 38.3927L44.4527 53.3923C43.2196 53.9548 42.3685 55.031 42.1941 56.2685C42.1401 56.6322 37.4403 92.7964 77.6545 112.547C78.2733 112.85 78.9671 113.006 79.6709 113C80.3746 112.994 81.0651 112.827 81.6776 112.513C120.318 92.7926 117.026 57.866 116.868 56.3885ZM79.5975 104.927C51.1163 89.8902 49.9538 66.1083 50.2735 59.1597L79.6308 45.9488L108.685 59.1147C108.706 66.127 106.688 90.0252 79.5975 104.927Z" fill="#1E94A2"/>
</g>
<path d="M75.0005 81.3514L92.3336 63L95 65.8233L75.0005 87L63 74.2932L65.6664 71.4699L75.0005 81.3514Z" fill="#1E94A2"/>
<defs>
<filter id="filter0_d_445_690" x="0" y="0" width="158" height="158" filterUnits="userSpaceOnUse" color-interpolation-filters="sRGB">
<feFlood flood-opacity="0" result="BackgroundImageFix"/>
<feColorMatrix in="SourceAlpha" type="matrix" values="0 0 0 0 0 0 0 0 0 0 0 0 0 0 0 0 0 0 127 0" result="hardAlpha"/>
<feOffset dy="4"/>
<feGaussianBlur stdDeviation="2"/>
<feComposite in2="hardAlpha" operator="out"/>
<feColorMatrix type="matrix" values="0 0 0 0 0 0 0 0 0 0 0 0 0 0 0 0 0 0 0.25 0"/>
<feBlend mode="normal" in2="BackgroundImageFix" result="effect1_dropShadow_445_690"/>
<feBlend mode="normal" in="SourceGraphic" in2="effect1_dropShadow_445_690" result="shape"/>
</filter>
</defs>
</svg>
