<svg width="21" height="21" viewBox="0 0 21 21" fill="none" xmlns="http://www.w3.org/2000/svg">
<path d="M7.875 13.0524V13.5625C7.875 14.6068 8.28984 15.6083 9.02827 16.3467C9.76669 17.0852 10.7682 17.5 11.8125 17.5C12.8568 17.5 13.8583 17.0852 14.5967 16.3467C15.3352 15.6083 15.75 14.6068 15.75 13.5625V12.1012C15.1659 11.8948 14.6737 11.4886 14.3602 10.9543C14.0467 10.42 13.9322 9.7921 14.0369 9.18156C14.1416 8.57102 14.4588 8.01715 14.9324 7.61786C15.406 7.21857 16.0055 6.99957 16.625 6.99957C17.2445 6.99957 17.844 7.21857 18.3176 7.61786C18.7912 8.01715 19.1084 8.57102 19.2131 9.18156C19.3178 9.7921 19.2033 10.42 18.8898 10.9543C18.5763 11.4886 18.0841 11.8948 17.5 12.1012V13.5625C17.5 15.0709 16.9008 16.5176 15.8342 17.5842C14.7676 18.6508 13.3209 19.25 11.8125 19.25C10.3041 19.25 8.85744 18.6508 7.79083 17.5842C6.72422 16.5176 6.125 15.0709 6.125 13.5625V13.0524C4.90153 12.8456 3.79086 12.2121 2.98999 11.2644C2.18911 10.3166 1.74981 9.11582 1.75 7.875V3.5C1.75 3.03587 1.93437 2.59075 2.26256 2.26256C2.59075 1.93437 3.03587 1.75 3.5 1.75H4.375C4.60706 1.75 4.82962 1.84219 4.99372 2.00628C5.15781 2.17038 5.25 2.39294 5.25 2.625C5.25 2.85706 5.15781 3.07962 4.99372 3.24372C4.82962 3.40781 4.60706 3.5 4.375 3.5H3.5V7.875C3.5 8.80326 3.86875 9.6935 4.52513 10.3499C5.1815 11.0063 6.07174 11.375 7 11.375C7.92826 11.375 8.8185 11.0063 9.47487 10.3499C10.1313 9.6935 10.5 8.80326 10.5 7.875V3.5H9.625C9.39294 3.5 9.17038 3.40781 9.00628 3.24372C8.84219 3.07962 8.75 2.85706 8.75 2.625C8.75 2.39294 8.84219 2.17038 9.00628 2.00628C9.17038 1.84219 9.39294 1.75 9.625 1.75H10.5C10.9641 1.75 11.4092 1.93437 11.7374 2.26256C12.0656 2.59075 12.25 3.03587 12.25 3.5V7.875C12.2502 9.11582 11.8109 10.3166 11.01 11.2644C10.2091 12.2121 9.09847 12.8456 7.875 13.0524ZM16.625 10.5C16.8571 10.5 17.0796 10.4078 17.2437 10.2437C17.4078 10.0796 17.5 9.85706 17.5 9.625C17.5 9.39294 17.4078 9.17038 17.2437 9.00628C17.0796 8.84219 16.8571 8.75 16.625 8.75C16.3929 8.75 16.1704 8.84219 16.0063 9.00628C15.8422 9.17038 15.75 9.39294 15.75 9.625C15.75 9.85706 15.8422 10.0796 16.0063 10.2437C16.1704 10.4078 16.3929 10.5 16.625 10.5Z" fill="#1E94A2"/>
</svg>
