<svg width="158" height="158" viewBox="0 0 158 158" fill="none" xmlns="http://www.w3.org/2000/svg">
<g filter="url(#filter0_d_445_643)">
<circle cx="79" cy="75" r="75" fill="white"/>
<path d="M116.82 61.2355C116.194 55.0125 113.399 49.2082 108.923 44.8404L108.518 44.5104C105.293 41.3757 101.325 39.1118 96.9858 37.9311C92.6466 36.7504 88.0785 36.6917 83.7104 37.7604C79.3423 38.8292 75.3173 40.9904 72.0133 44.0412C68.7093 47.092 66.2345 50.9323 64.8214 55.2017C62.929 60.9212 63.0321 67.1135 65.1139 72.7668L42.8027 95.1657C42.548 95.4203 42.346 95.7225 42.2083 96.0552C42.0706 96.3879 41.9999 96.7445 42.0002 97.1045V109.255C41.9957 109.616 42.0635 109.975 42.1996 110.31C42.3357 110.644 42.5374 110.949 42.7928 111.204C43.0481 111.46 43.3521 111.662 43.6867 111.799C44.0213 111.935 44.3799 112.004 44.7413 112H56.9243C57.3208 112.006 57.7138 111.926 58.0755 111.763C58.4372 111.601 58.7587 111.361 59.0171 111.06C59.2756 110.759 59.4646 110.405 59.5708 110.023C59.677 109.641 59.6978 109.241 59.6317 108.85L59.0805 105.193L62.4815 105.741C62.9132 105.815 63.3563 105.788 63.7756 105.661C64.1948 105.534 64.5786 105.311 64.8964 105.01L71.0048 98.897C71.3143 98.5916 71.5455 98.216 71.6787 97.802C71.8118 97.3881 71.8431 96.9481 71.7697 96.5195L71.1848 92.8595L74.8446 93.407C75.2734 93.4767 75.7127 93.4434 76.1261 93.3097C76.5395 93.176 76.9151 92.9459 77.2219 92.6382L81.2792 88.5395C85.5032 90.1079 90.0575 90.5721 94.5111 89.8883C98.9646 89.2046 103.17 87.3953 106.729 84.6319C110.29 81.8682 113.088 78.2434 114.861 74.099C116.633 69.9545 117.322 65.427 116.861 60.943L116.82 61.2355ZM99.8518 70.1306C98.2888 71.732 96.2741 72.8179 94.0772 73.2431C93.3536 73.3875 92.6176 73.4603 91.8798 73.4606C90.4021 73.4573 88.9385 73.1722 87.5676 72.6206C85.5085 71.7607 83.7516 70.3079 82.5204 68.4468C81.2646 66.6024 80.6002 64.4193 80.6155 62.188C80.6155 59.9623 81.2757 57.7866 82.5126 55.9362C83.7494 54.0858 85.5073 52.6439 87.5638 51.793C89.6269 50.9519 91.8917 50.736 94.0765 51.172C96.2613 51.6081 98.2697 52.6769 99.8518 54.2455C101.938 56.3624 103.108 59.2155 103.108 62.188C103.108 65.1606 101.938 68.0137 99.8518 70.1306Z" fill="#1E94A2"/>
</g>
<defs>
<filter id="filter0_d_445_643" x="0" y="0" width="158" height="158" filterUnits="userSpaceOnUse" color-interpolation-filters="sRGB">
<feFlood flood-opacity="0" result="BackgroundImageFix"/>
<feColorMatrix in="SourceAlpha" type="matrix" values="0 0 0 0 0 0 0 0 0 0 0 0 0 0 0 0 0 0 127 0" result="hardAlpha"/>
<feOffset dy="4"/>
<feGaussianBlur stdDeviation="2"/>
<feComposite in2="hardAlpha" operator="out"/>
<feColorMatrix type="matrix" values="0 0 0 0 0 0 0 0 0 0 0 0 0 0 0 0 0 0 0.25 0"/>
<feBlend mode="normal" in2="BackgroundImageFix" result="effect1_dropShadow_445_643"/>
<feBlend mode="normal" in="SourceGraphic" in2="effect1_dropShadow_445_643" result="shape"/>
</filter>
</defs>
</svg>
