<svg width="129" height="130" viewBox="0 0 129 130" fill="none" xmlns="http://www.w3.org/2000/svg">
<path fill-rule="evenodd" clip-rule="evenodd" d="M64.4262 129.388C47.5439 129.388 31.3531 122.608 19.4155 110.538C7.47795 98.4684 0.771484 82.0983 0.771484 65.0292C0.771484 47.9601 7.47795 31.59 19.4155 19.5203C31.3531 7.45061 47.5439 0.669922 64.4262 0.669922C81.3085 0.669922 97.4993 7.45061 109.437 19.5203C121.374 31.59 128.081 47.9601 128.081 65.0292C128.081 82.0983 121.374 98.4684 109.437 110.538C97.4993 122.608 81.3085 129.388 64.4262 129.388ZM93.4687 42.0449L55.7533 79.51L35.3837 59.2851C34.6269 58.5561 33.6168 58.1575 32.5716 58.1755C31.5265 58.1935 30.5303 58.6267 29.7985 59.3814C29.0668 60.1361 28.6581 61.1516 28.661 62.2085C28.6639 63.2653 29.0781 64.2786 29.814 65.0292L52.9604 88.0135C53.7041 88.7505 54.7039 89.1633 55.7453 89.1633C56.7867 89.1633 57.7865 88.7505 58.5302 88.0135L99.0385 47.789C99.4202 47.4212 99.7258 46.9805 99.9376 46.4923C100.149 46.0041 100.263 45.4782 100.272 44.9452C100.281 44.4123 100.185 43.8828 99.9899 43.3876C99.7947 42.8924 99.5042 42.4413 99.135 42.0607C98.7659 41.68 98.3257 41.3774 97.8399 41.1703C97.3541 40.9631 96.8324 40.8557 96.3051 40.8543C95.7779 40.8528 95.2556 40.9573 94.7687 41.1617C94.2818 41.3661 93.8399 41.6663 93.4687 42.0449Z" fill="#00CC08"/>
</svg>
